<svg xmlns="http://www.w3.org/2000/svg" viewBox="0 0 205 35">
  <defs>
    <style>
      .cls-1, .cls-2 {
        fill: #ea2b3a;
      }

      .cls-2 {
        font-size: 30px;
        font-family: LucidaGrande-Bold, Lucida Grande;
        font-weight: 700;
      }
    </style>
  </defs>
  <g id="logo" transform="translate(-118 -99)">
    <path id="_" data-name="" class="cls-1" d="M7.973,13.5,19,20.3l-7.634,6.362L.429,19.545ZM29.982,25.884v2.411l-10.938,6.54v.022l-.022-.022L19,34.857v-.022L8.085,28.295V25.884l3.281,2.143L19,21.687v-.045l.022.022.022-.022v.045L26.7,28.027ZM11.366.348,19,6.71,7.973,13.5.429,7.469ZM30.027,13.5l7.545,6.049L26.656,26.665,19,20.3ZM26.656.348,37.571,7.469,30.027,13.5,19,6.71Z" transform="translate(117.571 98.652)"/>
    <text id="RaevixBox" class="cls-2" transform="translate(166 128)"><tspan x="0" y="0">RaevixBox</tspan></text>
  </g>
</svg>
